<svg width="175" height="114" viewBox="0 0 175 114" fill="none" xmlns="http://www.w3.org/2000/svg">
<path d="M0 15.2C0 6.80527 6.81306 0 15.2174 0H159.783C168.187 0 175 6.80527 175 15.2V98.8C175 107.195 168.187 114 159.783 114H15.2174C6.81306 114 0 107.195 0 98.8V15.2Z" fill="#1E293B"/>
<path d="M148 59C148 63.5833 147.251 67.8611 145.754 71.8333C144.257 75.8056 142.131 79.3194 139.376 82.375C136.68 85.3694 133.446 87.7222 129.673 89.4333C125.96 91.1445 121.887 92 117.455 92C113.023 92 108.95 91.1445 105.237 89.4333C101.524 87.7222 98.2896 85.3694 95.5346 82.375C92.8395 79.3194 90.7432 75.8056 89.2459 71.8333C87.7486 67.8611 87 63.5833 87 59C87 54.4167 87.7486 50.1389 89.2459 46.1667C90.7432 42.1944 92.8395 38.7111 95.5346 35.7167C98.2896 32.6611 101.524 30.2778 105.237 28.5667C108.95 26.8556 113.023 26 117.455 26C121.887 26 125.96 26.8556 129.673 28.5667C133.446 30.2778 136.68 32.6611 139.376 35.7167C142.131 38.7111 144.257 42.1944 145.754 46.1667C147.251 50.1389 148 54.4167 148 59ZM136.321 59C136.321 54.9056 135.513 51.2083 133.895 47.9083C132.278 44.5472 130.062 41.8889 127.247 39.9333C124.433 37.9778 121.168 37 117.455 37C113.742 37 110.478 37.9778 107.663 39.9333C104.848 41.8889 102.632 44.5167 101.015 47.8167C99.4575 51.1167 98.6789 54.8444 98.6789 59C98.6789 63.0944 99.4575 66.8222 101.015 70.1833C102.632 73.4833 104.848 76.1111 107.663 78.0667C110.478 80.0222 113.742 81 117.455 81C121.168 81 124.433 80.0222 127.247 78.0667C130.062 76.1111 132.278 73.4833 133.895 70.1833C135.513 66.8222 136.321 63.0944 136.321 59Z" fill="white"/>
<path d="M56.4534 92C51.8096 92 47.4714 91.1445 43.4386 89.4333C39.4059 87.7222 35.862 85.3694 32.8069 82.375C29.7518 79.3194 27.3382 75.8056 25.5663 71.8333C23.8554 67.8611 23 63.5833 23 59C23 54.4167 23.8554 50.1389 25.5663 46.1667C27.3382 42.1944 29.7518 38.7111 32.8069 35.7167C35.862 32.6611 39.4059 30.2778 43.4386 28.5667C47.4714 26.8556 51.8096 26 56.4534 26C59.3252 26 62.1053 26.3056 64.7938 26.9167C67.4823 27.5278 69.9569 28.4444 72.2177 29.6667C73.1342 30.1556 73.8063 30.8278 74.234 31.6833C74.7229 32.4778 74.9673 33.3028 74.9673 34.1583C74.9673 35.625 74.4785 36.9389 73.5008 38.1C72.5232 39.2611 71.2706 39.8417 69.743 39.8417C69.2542 39.8417 68.7349 39.7806 68.185 39.6583C67.6961 39.5361 67.2073 39.3528 66.7185 39.1083C65.1909 38.4361 63.5717 37.9167 61.8609 37.55C60.15 37.1833 58.3475 37 56.4534 37C52.4817 37 48.8462 38.0083 45.5466 40.025C42.3082 41.9806 39.7114 44.6389 37.7561 48C35.862 51.3 34.9149 54.9667 34.9149 59C34.9149 62.9722 35.862 66.6389 37.7561 70C39.7114 73.3611 42.3082 76.05 45.5466 78.0667C48.8462 80.0222 52.4817 81 56.4534 81C58.2864 81 60.3028 80.8167 62.5025 80.45C64.7021 80.0833 66.5046 79.5944 67.91 78.9833L67.0851 81.7333V66.0583L68.6432 67.4333H58.4697C56.8811 67.4333 55.5368 66.9139 54.437 65.875C53.3983 64.8361 52.8789 63.5222 52.8789 61.9333C52.8789 60.3444 53.3983 59.0306 54.437 57.9917C55.5368 56.9528 56.8811 56.4333 58.4697 56.4333H73.5008C75.0895 56.4333 76.4032 56.9833 77.4419 58.0833C78.4806 59.1222 79 60.4361 79 62.025V81.4583C79 82.6806 78.6945 83.6889 78.0835 84.4833C77.5336 85.2778 76.892 85.9194 76.1588 86.4083C73.3481 88.1194 70.2624 89.4944 66.9018 90.5333C63.6023 91.5111 60.1195 92 56.4534 92Z" fill="white"/>
</svg>
