<svg width="1048" height="180" viewBox="0 0 1048 180" fill="none" xmlns="http://www.w3.org/2000/svg">
<path d="M0 24.3494C0 10.9016 10.9016 0 24.3494 0H255.669C269.116 0 280.018 10.9016 280.018 24.3494V158.271C280.018 171.719 269.116 182.62 255.669 182.62H24.3494C10.9016 182.62 0 171.719 0 158.271V24.3494Z" fill="#1E293B"/>
<path d="M237.449 94.9626C237.449 102.267 236.231 109.085 233.796 115.416C231.361 121.747 227.904 127.347 223.424 132.217C219.041 136.99 213.781 140.739 207.645 143.467C201.606 146.194 194.983 147.557 187.776 147.557C180.569 147.557 173.946 146.194 167.907 143.467C161.868 140.739 156.609 136.99 152.129 132.217C147.746 127.347 144.337 121.747 141.902 115.416C139.467 109.085 138.249 102.267 138.249 94.9626C138.249 87.6578 139.467 80.8399 141.902 74.5091C144.337 68.1782 147.746 62.6266 152.129 57.8541C156.609 52.9842 161.868 49.1857 167.907 46.4586C173.946 43.7315 180.569 42.3679 187.776 42.3679C194.983 42.3679 201.606 43.7315 207.645 46.4586C213.781 49.1857 219.041 52.9842 223.424 57.8541C227.904 62.6266 231.361 68.1782 233.796 74.5091C236.231 80.8399 237.449 87.6578 237.449 94.9626ZM218.456 94.9626C218.456 88.4369 217.141 82.5444 214.512 77.2849C211.882 71.9281 208.278 67.6913 203.701 64.5745C199.123 61.4578 193.815 59.8995 187.776 59.8995C181.737 59.8995 176.429 61.4578 171.852 64.5745C167.274 67.6913 163.67 71.8794 161.04 77.1388C158.508 82.3983 157.242 88.3395 157.242 94.9626C157.242 101.488 158.508 107.429 161.04 112.786C163.67 118.046 167.274 122.234 171.852 125.351C176.429 128.467 181.737 130.026 187.776 130.026C193.815 130.026 199.123 128.467 203.701 125.351C208.278 122.234 211.882 118.046 214.512 112.786C217.141 107.429 218.456 101.488 218.456 94.9626Z" fill="white"/>
<path d="M89.8492 147.557C82.447 147.557 75.5318 146.194 69.1036 143.467C62.6753 140.739 57.0263 136.99 52.1564 132.217C47.2865 127.347 43.4393 121.747 40.6148 115.416C37.8876 109.085 36.5241 102.267 36.5241 94.9626C36.5241 87.6578 37.8876 80.8399 40.6148 74.5091C43.4393 68.1782 47.2865 62.6266 52.1564 57.8541C57.0263 52.9842 62.6753 49.1857 69.1036 46.4586C75.5318 43.7315 82.447 42.3679 89.8492 42.3679C94.4269 42.3679 98.8585 42.8549 103.144 43.8289C107.43 44.8028 111.374 46.2638 114.978 48.2117C116.439 48.9909 117.51 50.0623 118.192 51.4259C118.971 52.692 119.361 54.0069 119.361 55.3705C119.361 57.708 118.582 59.8021 117.023 61.6526C115.465 63.5032 113.468 64.4284 111.033 64.4284C110.254 64.4284 109.426 64.331 108.55 64.1362C107.77 63.9414 106.991 63.6493 106.212 63.2597C103.777 62.1883 101.196 61.3604 98.4689 60.776C95.7418 60.1916 92.8686 59.8995 89.8492 59.8995C83.5184 59.8995 77.7232 61.5065 72.4638 64.7206C67.3017 67.8374 63.1623 72.0741 60.0456 77.431C57.0263 82.6905 55.5166 88.5343 55.5166 94.9626C55.5166 101.293 57.0263 107.137 60.0456 112.494C63.1623 117.851 67.3017 122.136 72.4638 125.351C77.7232 128.467 83.5184 130.026 89.8492 130.026C92.7712 130.026 95.9853 129.734 99.4916 129.149C102.998 128.565 105.871 127.786 108.111 126.812L106.796 131.194V106.212L109.28 108.403H93.0634C90.531 108.403 88.3883 107.576 86.6351 105.92C84.9794 104.264 84.1515 102.17 84.1515 99.6377C84.1515 97.1053 84.9794 95.0113 86.6351 93.3555C88.3883 91.6998 90.531 90.8719 93.0634 90.8719H117.023C119.556 90.8719 121.65 91.7485 123.305 93.5016C124.961 95.1574 125.789 97.2514 125.789 99.7838V130.756C125.789 132.704 125.302 134.311 124.328 135.577C123.451 136.844 122.429 137.866 121.26 138.645C116.78 141.373 111.861 143.564 106.504 145.22C101.245 146.778 95.6931 147.557 89.8492 147.557Z" fill="white"/>
<path d="M1041.5 59.2723C1043.34 59.2723 1044.86 59.922 1046.05 61.2215C1047.35 62.4127 1048 63.9287 1048 65.7696V136.59C1048 145.686 1046.21 153.212 1042.64 159.168C1039.07 165.232 1034.25 169.726 1028.18 172.65C1022.23 175.574 1015.46 177.036 1007.88 177.036C1003.66 177.036 999.595 176.603 995.697 175.736C991.798 174.87 988.604 173.733 986.113 172.325C984.056 171.351 982.594 170.105 981.728 168.589C980.97 167.182 980.861 165.666 981.403 164.041C982.161 162.092 983.244 160.738 984.651 159.98C986.168 159.222 987.738 159.222 989.362 159.98C991.095 160.738 993.585 161.767 996.834 163.067C1000.19 164.474 1003.93 165.178 1008.04 165.178C1013.67 165.178 1018.49 164.095 1022.5 161.93C1026.5 159.764 1029.59 156.569 1031.76 152.346C1033.92 148.231 1035.01 143.087 1035.01 136.915V125.382L1036.95 129.443C1035.22 132.8 1032.89 135.724 1029.97 138.214C1027.05 140.705 1023.69 142.654 1019.9 144.062C1016.11 145.47 1011.94 146.174 1007.39 146.174C1001.22 146.174 995.968 144.874 991.636 142.275C987.413 139.568 984.164 135.886 981.89 131.23C979.724 126.465 978.641 120.997 978.641 114.824V65.7696C978.641 63.9287 979.237 62.4127 980.428 61.2215C981.728 59.922 983.298 59.2723 985.139 59.2723C987.088 59.2723 988.658 59.922 989.849 61.2215C991.04 62.4127 991.636 63.9287 991.636 65.7696V111.9C991.636 119.264 993.26 124.841 996.509 128.631C999.758 132.313 1004.79 134.154 1011.62 134.154C1015.95 134.154 1019.85 133.179 1023.31 131.23C1026.88 129.281 1029.7 126.628 1031.76 123.271C1033.92 119.805 1035.01 116.015 1035.01 111.9V65.7696C1035.01 63.9287 1035.6 62.4127 1036.79 61.2215C1037.98 59.922 1039.55 59.2723 1041.5 59.2723Z" fill="#1E293B"/>
<path d="M870.765 59.2723C878.128 59.2723 884.084 61.1674 888.632 64.9574C893.289 68.6392 896.375 73.8912 897.891 80.7134H895.455L896.592 77.7896C897.891 74.7575 900.111 71.8337 903.251 69.0182C906.392 66.2028 910.019 63.8746 914.134 62.0337C918.249 60.1928 922.527 59.2723 926.966 59.2723C934.113 59.2723 939.744 60.8425 943.859 63.9828C947.974 67.0149 950.898 71.1299 952.631 76.3277C954.472 81.4173 955.392 87.1565 955.392 93.5455V137.89C955.392 139.73 954.742 141.301 953.443 142.6C952.252 143.9 950.736 144.549 948.895 144.549C946.946 144.549 945.375 143.9 944.184 142.6C942.993 141.301 942.398 139.73 942.398 137.89V93.8704C942.398 89.6472 941.748 85.8571 940.448 82.5001C939.257 79.0349 937.254 76.3277 934.438 74.3785C931.731 72.321 927.995 71.2923 923.23 71.2923C918.791 71.2923 914.73 72.321 911.048 74.3785C907.366 76.3277 904.442 79.0349 902.277 82.5001C900.111 85.8571 899.028 89.6472 899.028 93.8704V137.89C899.028 139.73 898.432 141.301 897.241 142.6C896.05 143.9 894.48 144.549 892.531 144.549C890.69 144.549 889.12 143.9 887.82 142.6C886.629 141.301 886.033 139.73 886.033 137.89V93.3831C886.033 89.2681 885.438 85.5863 884.247 82.3377C883.164 78.9808 881.269 76.3277 878.562 74.3785C875.854 72.321 872.118 71.2923 867.354 71.2923C863.022 71.2923 859.07 72.321 855.496 74.3785C851.923 76.3277 849.053 78.9808 846.887 82.3377C844.722 85.5863 843.639 89.2681 843.639 93.3831V137.89C843.639 139.73 842.989 141.301 841.689 142.6C840.498 143.9 838.982 144.549 837.141 144.549C835.3 144.549 833.73 143.9 832.431 142.6C831.24 141.301 830.644 139.73 830.644 137.89V67.0691C830.644 65.2282 831.24 63.7121 832.431 62.521C833.73 61.2215 835.3 60.5718 837.141 60.5718C839.091 60.5718 840.661 61.2215 841.852 62.521C843.043 63.7121 843.639 65.2282 843.639 67.0691V79.4139L840.065 83.3123C840.498 80.4968 841.581 77.6813 843.314 74.8658C845.155 72.0503 847.483 69.4514 850.298 67.0691C853.114 64.6867 856.254 62.7917 859.719 61.3839C863.185 59.9762 866.866 59.2723 870.765 59.2723Z" fill="#1E293B"/>
<path d="M776.352 146.174C767.689 146.174 760.109 144.333 753.612 140.651C747.115 136.969 742.025 131.934 738.343 125.545C734.77 119.048 732.983 111.576 732.983 103.129C732.983 93.7081 734.824 85.6948 738.506 79.0892C742.296 72.3754 747.169 67.2858 753.125 63.8206C759.189 60.2471 765.578 58.4603 772.292 58.4603C777.273 58.4603 782.092 59.3808 786.748 61.2217C791.404 63.0626 795.519 65.7698 799.093 69.3433C802.666 72.8085 805.536 77.0317 807.702 82.013C809.868 86.886 811.005 92.3545 811.113 98.4187C811.113 100.151 810.463 101.613 809.164 102.804C807.864 103.996 806.348 104.591 804.616 104.591H740.455L737.531 93.3833H800.067L797.469 95.6573V92.0838C797.035 87.644 795.519 83.8539 792.92 80.7135C790.43 77.4649 787.344 74.9743 783.662 73.2417C780.088 71.509 776.298 70.6427 772.292 70.6427C769.043 70.6427 765.794 71.2383 762.546 72.4295C759.405 73.5124 756.536 75.3533 753.937 77.9522C751.446 80.4428 749.389 83.6915 747.764 87.6981C746.248 91.7048 745.49 96.5236 745.49 102.155C745.49 108.435 746.736 113.958 749.226 118.723C751.825 123.487 755.399 127.277 759.947 130.093C764.495 132.8 769.801 134.154 775.865 134.154C779.655 134.154 782.958 133.666 785.773 132.692C788.589 131.717 791.025 130.526 793.083 129.118C795.14 127.602 796.873 126.086 798.281 124.57C799.688 123.596 801.042 123.108 802.342 123.108C803.966 123.108 805.265 123.65 806.24 124.733C807.323 125.816 807.864 127.115 807.864 128.631C807.864 130.472 806.998 132.096 805.265 133.504C802.233 136.861 798.118 139.839 792.92 142.438C787.723 144.928 782.2 146.174 776.352 146.174Z" fill="#1E293B"/>
<path d="M706.952 24.3494C708.793 24.3494 710.309 24.9991 711.5 26.2986C712.799 27.4897 713.449 29.0058 713.449 30.8467V137.89C713.449 139.73 712.799 141.301 711.5 142.6C710.309 143.9 708.793 144.549 706.952 144.549C705.003 144.549 703.432 143.9 702.241 142.6C701.05 141.301 700.454 139.73 700.454 137.89V122.459L703.541 121.321C703.541 123.92 702.729 126.682 701.104 129.606C699.48 132.421 697.26 135.074 694.444 137.565C691.629 140.055 688.272 142.113 684.374 143.737C680.584 145.361 676.469 146.174 672.029 146.174C664.774 146.174 658.168 144.279 652.212 140.489C646.365 136.698 641.708 131.501 638.243 124.895C634.886 118.289 633.207 110.763 633.207 102.317C633.207 93.7621 634.886 86.182 638.243 79.5764C641.708 72.9708 646.365 67.8271 652.212 64.1453C658.06 60.3552 664.557 58.4602 671.704 58.4602C676.252 58.4602 680.529 59.2182 684.536 60.7342C688.543 62.2503 692.008 64.3077 694.932 66.9067C697.964 69.5056 700.346 72.3752 702.079 75.5156C703.811 78.6559 704.678 81.7963 704.678 84.9366L700.454 83.9621V30.8467C700.454 29.0058 701.05 27.4897 702.241 26.2986C703.432 24.9991 705.003 24.3494 706.952 24.3494ZM673.491 134.154C678.905 134.154 683.67 132.8 687.785 130.093C692.008 127.277 695.257 123.487 697.531 118.723C699.913 113.85 701.104 108.381 701.104 102.317C701.104 96.1445 699.913 90.6759 697.531 85.9112C695.257 81.1466 692.008 77.4106 687.785 74.7034C683.67 71.8879 678.905 70.4802 673.491 70.4802C668.185 70.4802 663.42 71.8879 659.197 74.7034C655.082 77.4106 651.833 81.1466 649.451 85.9112C647.068 90.6759 645.877 96.1445 645.877 102.317C645.877 108.273 647.068 113.687 649.451 118.56C651.833 123.325 655.082 127.115 659.197 129.93C663.42 132.746 668.185 134.154 673.491 134.154Z" fill="#1E293B"/>
<path d="M607.177 59.7598C609.017 59.7598 610.533 60.4095 611.725 61.709C613.024 62.9001 613.674 64.4162 613.674 66.2571V137.89C613.674 139.731 613.024 141.301 611.725 142.6C610.533 143.9 609.017 144.549 607.177 144.549C605.227 144.549 603.657 143.9 602.466 142.6C601.275 141.301 600.679 139.731 600.679 137.89V122.459L603.765 122.134C603.765 124.516 602.953 127.115 601.329 129.931C599.705 132.746 597.485 135.399 594.669 137.89C591.854 140.272 588.497 142.275 584.598 143.9C580.808 145.416 576.693 146.174 572.254 146.174C564.89 146.174 558.284 144.279 552.437 140.489C546.589 136.59 541.933 131.338 538.468 124.733C535.111 118.127 533.432 110.601 533.432 102.155C533.432 93.5998 535.111 86.0738 538.468 79.5765C541.933 72.9709 546.589 67.8272 552.437 64.1454C558.284 60.3554 564.782 58.4603 571.929 58.4603C576.585 58.4603 580.917 59.2183 584.923 60.7344C588.93 62.2504 592.395 64.3079 595.319 66.9068C598.351 69.5057 600.679 72.3754 602.304 75.5157C604.036 78.6561 604.902 81.7964 604.902 84.9368L600.679 83.9622V66.2571C600.679 64.4162 601.275 62.9001 602.466 61.709C603.657 60.4095 605.227 59.7598 607.177 59.7598ZM573.715 134.154C579.13 134.154 583.895 132.746 588.01 129.931C592.233 127.115 595.481 123.325 597.755 118.56C600.138 113.687 601.329 108.219 601.329 102.155C601.329 96.1988 600.138 90.8385 597.755 86.0738C595.481 81.2008 592.233 77.4108 588.01 74.7036C583.895 71.8881 579.13 70.4803 573.715 70.4803C568.409 70.4803 563.645 71.8339 559.421 74.5411C555.306 77.2483 552.058 80.9843 549.675 85.7489C547.293 90.5136 546.102 95.9822 546.102 102.155C546.102 108.219 547.239 113.687 549.513 118.56C551.895 123.325 555.144 127.115 559.259 129.931C563.482 132.746 568.301 134.154 573.715 134.154Z" fill="#1E293B"/>
<path d="M491.11 58.4603C496.632 58.4603 501.614 59.0559 506.053 60.2471C510.493 61.4382 514.013 63.0626 516.612 65.12C519.21 67.1775 520.51 69.5057 520.51 72.1046C520.51 73.5124 520.023 74.866 519.048 76.1654C518.073 77.4649 516.774 78.1146 515.15 78.1146C513.634 78.1146 512.388 77.8439 511.414 77.3025C510.547 76.761 509.681 76.0572 508.815 75.1908C508.057 74.3245 506.974 73.5665 505.566 72.9168C504.267 72.1588 502.372 71.5632 499.881 71.13C497.39 70.6969 494.9 70.4803 492.409 70.4803C486.453 70.4803 481.201 71.8881 476.653 74.7036C472.213 77.519 468.694 81.3091 466.095 86.0738C463.496 90.8385 462.197 96.2529 462.197 102.317C462.197 108.381 463.442 113.796 465.933 118.56C468.423 123.325 471.889 127.115 476.328 129.931C480.768 132.746 485.912 134.154 491.759 134.154C495.55 134.154 498.582 133.829 500.856 133.179C503.13 132.529 505.025 131.771 506.541 130.905C508.49 129.822 509.952 128.739 510.926 127.656C512.009 126.574 513.417 126.032 515.15 126.032C516.991 126.032 518.398 126.628 519.373 127.819C520.456 129.01 520.997 130.472 520.997 132.205C520.997 134.154 519.644 136.211 516.936 138.377C514.229 140.543 510.547 142.384 505.891 143.9C501.343 145.416 496.145 146.174 490.298 146.174C482.068 146.174 474.866 144.279 468.694 140.489C462.522 136.59 457.703 131.338 454.238 124.733C450.881 118.019 449.202 110.547 449.202 102.317C449.202 94.0871 450.935 86.6694 454.4 80.0638C457.973 73.4582 462.901 68.2063 469.181 64.3079C475.462 60.4095 482.772 58.4603 491.11 58.4603Z" fill="#1E293B"/>
<path d="M390.799 47.7398L352.627 140.651C352.194 141.951 351.436 142.979 350.353 143.737C349.27 144.495 348.133 144.874 346.942 144.874C344.885 144.874 343.369 144.333 342.394 143.25C341.419 142.167 340.932 140.868 340.932 139.352C340.824 138.594 340.932 137.781 341.257 136.915L383.327 34.5828C383.868 33.0667 384.681 31.9838 385.763 31.3341C386.955 30.5761 388.254 30.2512 389.662 30.3595C391.07 30.3595 392.315 30.7385 393.398 31.4965C394.589 32.2546 395.401 33.2833 395.834 34.5828L437.742 135.941C438.067 136.807 438.229 137.673 438.229 138.539C438.229 140.489 437.579 142.059 436.28 143.25C434.98 144.333 433.519 144.874 431.894 144.874C430.595 144.874 429.404 144.495 428.321 143.737C427.238 142.979 426.426 141.896 425.884 140.489L387.225 47.5773L390.799 47.7398ZM360.749 114.175L366.272 101.505H414.514L416.95 114.175H360.749Z" fill="#1E293B"/>
</svg>
